<svg width="86" height="138" viewBox="0 0 86 138" fill="none" xmlns="http://www.w3.org/2000/svg">
<g opacity="0.5">
<rect x="0.761719" y="0.666016" width="2.01956" height="2.02287" fill="black"/>
<rect x="14.207" y="0.666016" width="2.01956" height="2.02287" fill="black"/>
<rect x="27.6582" y="0.666016" width="2.01956" height="2.02287" fill="black"/>
<rect x="41.1025" y="0.666016" width="2.01956" height="2.02287" fill="black"/>
<rect x="54.5469" y="0.666016" width="2.01956" height="2.02287" fill="black"/>
<rect x="67.9932" y="0.666016" width="2.01956" height="2.02287" fill="black"/>
<rect x="81.4443" y="0.666016" width="2.01956" height="2.02287" fill="black"/>
<rect x="0.761719" y="14.1328" width="2.01956" height="2.02287" fill="black"/>
<rect x="14.207" y="14.1328" width="2.01956" height="2.02287" fill="black"/>
<rect x="27.6582" y="14.1328" width="2.01956" height="2.02287" fill="black"/>
<rect x="41.1025" y="14.1328" width="2.01956" height="2.02287" fill="black"/>
<rect x="54.5469" y="14.1328" width="2.01956" height="2.02287" fill="black"/>
<rect x="67.9932" y="14.1328" width="2.01956" height="2.02287" fill="black"/>
<rect x="81.4443" y="14.1328" width="2.01956" height="2.02287" fill="black"/>
<rect x="0.761719" y="27.605" width="2.01956" height="2.02287" fill="black"/>
<rect x="14.207" y="27.606" width="2.01956" height="2.02287" fill="black"/>
<rect x="27.6582" y="27.605" width="2.01956" height="2.02287" fill="black"/>
<rect x="41.1025" y="27.606" width="2.01956" height="2.02287" fill="black"/>
<rect x="54.5469" y="27.606" width="2.01956" height="2.02287" fill="black"/>
<rect x="67.9932" y="27.606" width="2.01956" height="2.02287" fill="black"/>
<rect x="81.4443" y="27.606" width="2.01956" height="2.02287" fill="black"/>
<rect x="0.761719" y="41.0728" width="2.01956" height="2.02287" fill="black"/>
<rect x="14.207" y="41.0728" width="2.01956" height="2.02287" fill="black"/>
<rect x="27.6582" y="41.0728" width="2.01956" height="2.02287" fill="black"/>
<rect x="41.1025" y="41.0728" width="2.01956" height="2.02287" fill="black"/>
<rect x="54.5469" y="41.0728" width="2.01956" height="2.02287" fill="black"/>
<rect x="67.9932" y="41.0728" width="2.01956" height="2.02287" fill="black"/>
<rect x="81.4443" y="41.0728" width="2.01956" height="2.02287" fill="black"/>
<rect x="0.761719" y="54.5405" width="2.01956" height="2.02287" fill="black"/>
<rect x="14.207" y="54.5405" width="2.01956" height="2.02287" fill="black"/>
<rect x="27.6582" y="54.5405" width="2.01956" height="2.02287" fill="black"/>
<rect x="41.1025" y="54.5405" width="2.01956" height="2.02287" fill="black"/>
<rect x="54.5469" y="54.5405" width="2.01956" height="2.02287" fill="black"/>
<rect x="67.9932" y="54.5405" width="2.01956" height="2.02287" fill="black"/>
<rect x="81.4443" y="54.5405" width="2.01956" height="2.02287" fill="black"/>
<rect x="0.761719" y="68.0073" width="2.01956" height="2.02287" fill="black"/>
<rect x="14.207" y="68.0073" width="2.01956" height="2.02287" fill="black"/>
<rect x="27.6582" y="68.0073" width="2.01956" height="2.02287" fill="black"/>
<rect x="41.1025" y="68.0073" width="2.01956" height="2.02287" fill="black"/>
<rect x="54.5469" y="68.0073" width="2.01956" height="2.02287" fill="black"/>
<rect x="67.9932" y="68.0073" width="2.01956" height="2.02287" fill="black"/>
<rect x="81.4443" y="68.0073" width="2.01956" height="2.02287" fill="black"/>
<rect x="0.761719" y="81.4805" width="2.01956" height="2.02287" fill="black"/>
<rect x="14.207" y="81.4805" width="2.01956" height="2.02287" fill="black"/>
<rect x="27.6582" y="81.4805" width="2.01956" height="2.02287" fill="black"/>
<rect x="41.1025" y="81.4805" width="2.01956" height="2.02287" fill="black"/>
<rect x="54.5469" y="81.4805" width="2.01956" height="2.02287" fill="black"/>
<rect x="67.9932" y="81.4805" width="2.01956" height="2.02287" fill="black"/>
<rect x="81.4443" y="81.4805" width="2.01956" height="2.02287" fill="black"/>
<rect x="0.761719" y="94.9463" width="2.01956" height="2.02287" fill="black"/>
<rect x="14.207" y="94.9482" width="2.01956" height="2.02287" fill="black"/>
<rect x="27.6582" y="94.9482" width="2.01956" height="2.02287" fill="black"/>
<rect x="41.1025" y="94.9482" width="2.01956" height="2.02287" fill="black"/>
<rect x="54.5469" y="94.9482" width="2.01956" height="2.02287" fill="black"/>
<rect x="67.9932" y="94.9482" width="2.01956" height="2.02287" fill="black"/>
<rect x="81.4443" y="94.9482" width="2.01956" height="2.02287" fill="black"/>
<rect x="0.761719" y="108.413" width="2.01956" height="2.02287" fill="black"/>
<rect x="14.207" y="108.413" width="2.01956" height="2.02287" fill="black"/>
<rect x="27.6582" y="108.413" width="2.01956" height="2.02287" fill="black"/>
<rect x="41.1025" y="108.413" width="2.01956" height="2.02287" fill="black"/>
<rect x="54.5469" y="108.413" width="2.01956" height="2.02287" fill="black"/>
<rect x="67.9932" y="108.413" width="2.01956" height="2.02287" fill="black"/>
<rect x="81.4443" y="108.413" width="2.01956" height="2.02287" fill="black"/>
<rect x="0.761719" y="121.882" width="2.01956" height="2.02287" fill="black"/>
<rect x="14.207" y="121.882" width="2.01956" height="2.02287" fill="black"/>
<rect x="27.6582" y="121.882" width="2.01956" height="2.02287" fill="black"/>
<rect x="41.1025" y="121.882" width="2.01956" height="2.02287" fill="black"/>
<rect x="54.5469" y="121.882" width="2.01956" height="2.02287" fill="black"/>
<rect x="67.9932" y="121.882" width="2.01956" height="2.02287" fill="black"/>
<rect x="81.4443" y="121.882" width="2.01956" height="2.02287" fill="black"/>
<rect x="0.761719" y="135.353" width="2.01956" height="2.02287" fill="black"/>
<rect x="14.207" y="135.354" width="2.01956" height="2.02287" fill="black"/>
<rect x="27.6582" y="135.354" width="2.01956" height="2.02287" fill="black"/>
<rect x="41.1025" y="135.354" width="2.01956" height="2.02287" fill="black"/>
<rect x="54.5469" y="135.354" width="2.01956" height="2.02287" fill="black"/>
<rect x="67.9932" y="135.354" width="2.01956" height="2.02287" fill="black"/>
<rect x="81.4443" y="135.354" width="2.01956" height="2.02287" fill="black"/>
</g>
</svg>
